<?xml version="1.0" encoding="utf-8"?>
<!-- Generator: Adobe Illustrator 26.3.1, SVG Export Plug-In . SVG Version: 6.00 Build 0)  -->
<svg version="1.1" id="Layer_2_00000111907173458246821370000018425181155127185306_"
	 xmlns="http://www.w3.org/2000/svg" xmlns:xlink="http://www.w3.org/1999/xlink" x="0px" y="0px" viewBox="0 0 394.3 46.2"
	 style="enable-background:new 0 0 394.3 46.2;" xml:space="preserve">
<style type="text/css">
	.st0{fill:#304FFE;}
</style>
<g id="Layer_1-2">
	<g>
		<g>
			<path class="st0" d="M94.9,30.8c0,3.3-0.7,5.7-2.2,7.2c-1.5,1.5-3.8,2.2-7.1,2.2H58v-6.6h23.6c0.5,0,1,0,1.5-0.1
				c0.4,0,0.9-0.2,1.3-0.3c0.4-0.2,0.7-0.4,0.9-0.8s0.3-0.8,0.3-1.3c0-0.6-0.2-1.1-0.5-1.5c-0.3-0.4-0.8-0.6-1.3-0.8
				c-0.5-0.2-1.1-0.3-1.6-0.3c-0.6,0-1.2-0.1-2-0.1c-0.5,0-1.9-0.1-4.2-0.2c-3.6-0.1-5.8-0.2-6.7-0.2s-1.8-0.1-2.6-0.1
				s-1.5-0.1-2.1-0.1c-2.9-0.2-4.9-1.1-6.2-2.8c-0.9-1.3-1.3-3.2-1.3-5.8c0-3.2,0.6-5.5,1.8-7.1s3.2-2.4,6.1-2.4h28.7v6.6H70.2
				c-0.5,0-1,0-1.4,0.1c-0.4,0-0.8,0.2-1.2,0.3c-0.4,0.2-0.7,0.4-0.9,0.8c-0.2,0.3-0.3,0.8-0.3,1.3c0,1,0.3,1.6,1.1,2
				c0.7,0.3,1.7,0.5,2.9,0.5H72c0.5,0,1.8,0.1,4.1,0.2c3.1,0.1,5.3,0.2,6.5,0.2c1.2,0,2.2,0.1,3.1,0.1c0.8,0,1.5,0.1,2.1,0.1
				c2.8,0.2,4.8,1.2,6,3.1C94.5,26.5,94.9,28.5,94.9,30.8L94.9,30.8z"/>
			<path class="st0" d="M107.4,28.8v11.4h-9.5V9.6h9.5v11h20.4v-11h9.5v30.6h-9.5V28.8C127.8,28.8,107.4,28.8,107.4,28.8z"/>
			<path class="st0" d="M170.5,32.8v7.4h-30.2V9.6h9.5v23.2H170.5z"/>
			<path class="st0" d="M173,17.4c0-1.2,0.1-2.3,0.4-3.1c0.3-0.8,0.8-1.6,1.6-2.3c0.7-0.7,1.4-1.2,2.3-1.6c0.8-0.4,1.9-0.6,3.1-0.8
				c1.3-0.2,2.8-0.2,4.5-0.3s4.5-0.1,8.2-0.1s6.4,0,8.2,0.1s3.3,0.1,4.5,0.3c1.2,0.2,2.3,0.4,3.1,0.8c0.8,0.4,1.6,0.9,2.2,1.6
				c0.8,0.7,1.3,1.5,1.6,2.3c0.3,0.8,0.4,1.8,0.4,3.1v14.9c0,1.2-0.1,2.3-0.4,3.2c-0.3,0.9-0.8,1.6-1.6,2.3
				c-0.7,0.7-1.4,1.2-2.3,1.5c-0.8,0.3-1.9,0.6-3.1,0.8s-2.8,0.3-4.6,0.3c-1.8,0-4.5,0.1-8,0.1s-6.2,0-8-0.1c-1.8,0-3.4-0.2-4.6-0.3
				c-1.3-0.2-2.3-0.4-3.1-0.8s-1.6-0.8-2.3-1.5c-0.8-0.7-1.3-1.5-1.6-2.3c-0.3-0.9-0.4-1.9-0.4-3.2L173,17.4L173,17.4z M181.6,31.1
				c0,0.6,0.2,1.1,0.6,1.3c0.4,0.2,1.1,0.4,2.2,0.4h17.3c1,0,1.8-0.2,2.2-0.5c0.5-0.3,0.7-0.7,0.7-1.2V18.7c0-0.7-0.2-1.2-0.6-1.5
				s-1.1-0.4-2.2-0.4h-17.4c-1,0-1.7,0.2-2.2,0.5c-0.4,0.3-0.6,0.8-0.6,1.4L181.6,31.1L181.6,31.1z"/>
			<path class="st0" d="M226.6,9.6v30.6H217V9.6H226.6z M242.9,9.6h12.6l-17.5,14.8l19.7,15.8H244l-17.4-15.8L242.9,9.6L242.9,9.6z"
				/>
			<path class="st0" d="M313,33.1v7.1h-33.5V9.6H313v7.1h-24v5.1h22.5V28H289v5.1L313,33.1L313,33.1z"/>
			<path class="st0" d="M343.8,22.7c0.7-0.5,1.1-1.3,1.1-2.4c0-0.9-0.4-1.6-1-2.2c-0.7-0.6-1.5-0.9-2.5-0.9h-15.1v23h-9.5V9.6h25.4
				c2.1,0,3.9,0.2,5.4,0.5s2.6,0.8,3.5,1.5c0.9,0.7,1.6,1.7,2,2.9c0.4,1.2,0.6,2.8,0.6,4.6s-0.2,3.4-0.5,4.7
				c-0.3,1.3-0.9,2.3-1.6,3.1s-1.7,1.4-2.9,1.7c-1.2,0.4-2.7,0.5-4.5,0.5v0.2l12.5,10.9H346l-18.4-16.6h13.7
				C342.3,23.6,343.1,23.3,343.8,22.7L343.8,22.7z"/>
			<path class="st0" d="M376.5,30.4l-7.5-6.7h12.8c1,0,1.9-0.3,2.6-0.9c0.8-0.6,1.1-1.4,1.1-2.5c0-0.9-0.4-1.6-1.2-2.2
				s-1.5-0.9-2.5-0.9h-14.2v22.9h-9.5V9.6h24.5c2.1,0,3.9,0.2,5.3,0.5s2.6,0.8,3.5,1.5c0.9,0.7,1.6,1.7,2,2.9s0.7,2.8,0.7,4.6
				c0,3.9-0.7,6.7-2.2,8.5c-1.5,1.8-4,2.7-7.5,2.7L376.5,30.4L376.5,30.4z"/>
		</g>
		<g>
			<path class="st0" d="M38.8,0c0.7,0.2,1.4,0.6,1.9,1.2c0.8,1,0.9,2.5,0.2,3.6c-0.7,1.1-2.1,1.6-3.3,1.3c-0.4-0.1-0.5,0-0.7,0.3
				c-0.8,1.4-1.6,2.8-2.3,4.2c-0.3,0.6-0.8,0.8-1.4,0.8c-2.8,0-5.7,0-8.5,0c-0.2,0-0.4,0-0.6,0c0,0.5,0,0.9,0,1.4
				c0,0.1,0.2,0.2,0.3,0.2c1.3,0.1,2.5,0.6,3.6,1.1c0.2,0.1,0.4,0.1,0.6,0.1c3.1,0,6.1,0,9.2,0c0.2,0,0.5-0.1,0.6-0.2
				c0.7-0.6,1.3-1.3,1.9-1.9c0.2-0.2,0.2-0.4,0.1-0.6c-0.8-2,0.7-4.1,2.8-4.2c1.4,0,2.7,1,3,2.5c0.3,1.4-0.5,2.9-1.9,3.4
				c-0.7,0.3-1.5,0.3-2.2,0c-0.3-0.1-0.5-0.1-0.7,0.1c-0.7,0.7-1.4,1.4-2.1,2.1c-0.3,0.4-0.7,0.5-1.2,0.5c-2.5,0-5,0-7.6,0
				c0.1,0.1,0.2,0.2,0.3,0.3c0.8,0.9,1.3,1.8,1.8,2.9c0.3,0.7,0.1,1.2-0.4,1.4c-0.5,0.2-1,0-1.3-0.7c-1.2-2.8-3.3-4.6-6.3-5.1
				c-3.9-0.8-7.9,1.5-9.3,5.2c-2,5.5,1.8,11.2,7.7,11.4c0.7,0,1.1,0.4,1.1,1.1c0,0.7,0,1.5,0,2.2h0.5c2.9,0,5.8,0,8.8,0
				c0.5,0,0.9,0.2,1.2,0.7c0.8,1.5,1.6,3,2.4,4.4c0.2,0.3,0.3,0.3,0.6,0.2c1.4-0.4,2.8,0.2,3.5,1.5c0.7,1.3,0.4,2.8-0.7,3.7
				c-1.1,1-2.7,1-3.8,0.2c-1.2-0.9-1.6-2.4-1-3.7c0.1-0.3,0.1-0.5,0-0.8c-0.8-1.4-1.5-2.8-2.3-4.1c-0.1-0.2-0.3-0.3-0.5-0.3
				c-2.8,0-5.7,0-8.5,0c0,0-0.1,0-0.2,0v0.5c0,2.6,0,5.3,0,7.9c0,0.8-0.3,1.2-1.1,1.2c-1.2,0-2.4,0-3.6,0c-0.9,0-1.2-0.3-1.2-1.2
				c0-0.8,0-1.7,0-2.4l-5.4-2.2c-0.5,0.5-1.1,1.1-1.7,1.7c-0.6,0.6-1,0.6-1.6,0c-1.8-1.8-3.6-3.6-5.4-5.4c-0.5-0.5-0.5-1,0-1.6
				c0.6-0.6,1.2-1.2,1.7-1.7l-2.2-5.4c-0.7,0-1.5,0-2.2,0c-0.6,0-1-0.1-1.3-0.6v-8.7c0.3-0.5,0.8-0.6,1.3-0.6c0.7,0,1.3,0,2,0
				c0.3,0,0.4-0.1,0.5-0.3c0.4-1.6,1.1-3.2,1.9-4.7c0.1-0.1,0.1-0.2,0.1-0.3c-0.6-0.6-1.2-1.2-1.8-1.8c-0.5-0.6-0.5-1,0-1.6
				c1.8-1.8,3.6-3.6,5.4-5.4c0.6-0.5,1-0.5,1.6,0c0.6,0.6,1.2,1.2,1.8,1.8c0.9-0.4,1.7-0.9,2.6-1.2c0.9-0.4,1.8-0.6,2.7-1
				c0-0.8,0-1.6,0-2.4c0-0.6,0.1-1,0.6-1.3h4.6C23.9,0.3,24,0.7,24,1.3c0,2.6,0,5.2,0,7.8v0.5c0.1,0,0.2,0,0.2,0c2.8,0,5.6,0,8.5,0
				c0.2,0,0.4-0.2,0.5-0.3c0.8-1.4,1.5-2.8,2.3-4.2c0.1-0.2,0.1-0.4,0-0.7c-0.5-1.1-0.4-2.2,0.4-3.2c0.5-0.6,1.1-0.9,1.8-1.1L38.8,0
				L38.8,0z M20,1.8c0,0.8,0,1.5,0,2.3c0,0.9-0.2,1.1-1,1.3c-2,0.5-3.8,1.2-5.5,2.3c-0.7,0.4-1,0.4-1.6-0.2
				c-0.5-0.5-1.1-1.1-1.5-1.5l-4.4,4.4c0.5,0.5,1,1,1.5,1.5c0.7,0.6,0.7,0.9,0.2,1.7c-0.9,1.5-1.7,3.2-2.1,4.9c-0.3,1-0.9,1.6-2,1.6
				c-0.6,0-1.1,0-1.7,0v6.3c0.8,0,1.5,0,2.3,0c0.8,0,1,0.2,1.2,0.9c0.5,2,1.2,3.9,2.3,5.6c0.4,0.7,0.4,1-0.2,1.6
				c-0.5,0.5-1.1,1.1-1.6,1.6l4.4,4.4c0.5-0.5,1.1-1.1,1.6-1.7c0.5-0.5,0.8-0.6,1.4-0.2c1.8,1.1,3.7,1.9,5.7,2.4
				c0.8,0.2,0.9,0.4,0.9,1.2c0,0.8,0,1.5,0,2.3h2.2V33.3c-1.6-0.2-3.1-0.7-4.5-1.5c-1.4-0.9-2.5-2-3.3-3.4C13.6,27.1,13,25.6,13,24
				c-0.1-6.4,3.2-9.9,9.2-11.2v-11H20L20,1.8z M39.5,3.1c0-0.7-0.6-1.3-1.2-1.3c-0.7,0-1.2,0.5-1.3,1.2s0.5,1.3,1.2,1.3
				C38.9,4.4,39.5,3.8,39.5,3.1L39.5,3.1z M39.5,43.1c0-0.7-0.6-1.3-1.3-1.2c-0.7,0-1.2,0.6-1.2,1.3c0,0.7,0.6,1.3,1.3,1.3
				C39,44.4,39.6,43.8,39.5,43.1z M43.2,11.7c0.7,0,1.2-0.6,1.2-1.2c0-0.7-0.6-1.2-1.3-1.2c-0.7,0-1.3,0.6-1.3,1.2
				C41.9,11.1,42.5,11.7,43.2,11.7z"/>
			<path class="st0" d="M23.6,30c-4.6,0-7.7-3.4-7.3-7.5c0.3-3.4,3.3-6.2,6.7-6.2c0.6,0,1.1,0.4,1.1,1c0,0.5-0.4,0.8-0.9,0.9
				c-1.1,0.1-2.1,0.4-3,1c-1.6,1.2-2.3,3.3-1.8,5.2c0.5,2,2.1,3.5,4.1,3.8c2.9,0.4,5.5-1.5,5.8-4.4c0-0.2,0-0.4,0.1-0.6
				c0.1-0.5,0.5-0.9,0.9-0.9c0.5,0,0.9,0.4,0.9,0.9c0,1.2-0.3,2.3-0.9,3.3C27.8,28.8,25.8,29.9,23.6,30L23.6,30z"/>
			<path class="st0" d="M35.1,30.2c1,0,2,0,3,0c0.5,0,0.8,0.1,1.1,0.5c0.7,0.7,1.5,1.4,2.2,2.2c0.2,0.2,0.4,0.3,0.7,0.2
				c1.2-0.5,2.3-0.2,3.2,0.7c0.9,0.9,1.2,2,0.7,3.2c-0.4,1.2-1.3,1.8-2.5,2c-2.3,0.3-4-2-3.2-4.1c0.1-0.3,0.1-0.5-0.2-0.7
				c-0.6-0.6-1.2-1.2-1.9-1.8c-0.2-0.1-0.4-0.3-0.6-0.3c-1.9,0-3.8,0-5.7,0c-0.5,0-0.9-0.2-1-0.6c-0.2-0.6,0.2-1.2,0.9-1.2
				C33,30.1,34,30.2,35.1,30.2L35.1,30.2z M43.2,34.6c-0.7,0-1.3,0.6-1.3,1.2c0,0.7,0.6,1.2,1.2,1.2c0.7,0,1.3-0.5,1.3-1.2
				C44.4,35.1,43.9,34.6,43.2,34.6z"/>
			<path class="st0" d="M38.8,22.2c0.1,0,0.2,0,0.3,0c0.7,0.1,1.2,0,1.6-0.8c0.7-1.3,2.3-1.7,3.7-1.1c1.3,0.5,2.1,2,1.8,3.4
				c-0.3,1.5-1.5,2.5-2.9,2.5c-1.3,0-2.4-0.6-2.9-1.8c-0.1-0.2-0.2-0.3-0.5-0.3c-0.7,0-1.4,0-2.2,0c-0.6,0-1-0.4-1-0.9
				c0-0.5,0.4-0.9,1-0.9C38.1,22.2,38.4,22.2,38.8,22.2L38.8,22.2z M43.2,24.4c0.7,0,1.3-0.6,1.2-1.3c0-0.7-0.6-1.2-1.3-1.2
				c-0.7,0-1.3,0.6-1.3,1.3C41.9,23.8,42.5,24.4,43.2,24.4L43.2,24.4z"/>
			<path class="st0" d="M31.5,23.1c0-0.5,0.4-0.9,0.9-0.9c0.5,0,0.9,0.4,0.9,0.9c0,0.5-0.4,0.9-0.9,0.9C31.9,24,31.5,23.6,31.5,23.1
				z"/>
			<path class="st0" d="M28.1,32c-0.5,0-0.9-0.4-0.9-0.9s0.4-0.9,0.9-0.9c0.5,0,0.9,0.4,0.9,0.9S28.6,31.9,28.1,32z"/>
			<path class="st0" d="M8.9,22.6c0.3-4.8,2.4-8.6,6.4-11.3c0.8-0.5,1.6-0.9,2.4-1.3c0.6-0.3,1.1-0.1,1.3,0.4c0.2,0.5,0,1-0.6,1.2
				c-2,0.8-3.6,2-5,3.7c-1.8,2.2-2.6,4.7-2.7,7.5c0,0.2,0,0.3,0,0.5c-0.1,0.5-0.5,0.8-0.9,0.7S9,23.6,8.9,23.1
				C8.9,22.9,8.9,22.7,8.9,22.6L8.9,22.6z"/>
		</g>
	</g>
</g>
</svg>
